<?xml version="1.0" encoding="UTF-8"?>
<svg xmlns="http://www.w3.org/2000/svg" xmlns:xlink="http://www.w3.org/1999/xlink" width="25px" height="25px" viewBox="0 0 21 21" version="1.1">
<g id="surface8196571">
<path style=" stroke:none;fill-rule:nonzero;fill:rgb(80%,80%,80%);fill-opacity:1;" d="M 13.859375 12.179688 C 13.105469 12.179688 12.601562 12.816406 12.601562 13.859375 C 12.601562 14.902344 12.972656 15.980469 13.859375 15.960938 C 14.792969 15.9375 15.128906 15.027344 15.121094 13.859375 C 15.113281 12.816406 14.613281 12.179688 13.859375 12.179688 Z M 18.589844 7.167969 C 18.703125 6.605469 18.753906 4.605469 17.925781 2.519531 C 17.925781 2.519531 16.023438 2.726562 13.144531 4.703125 C 12.542969 4.535156 11.519531 4.453125 10.5 4.453125 C 9.480469 4.453125 8.460938 4.535156 7.855469 4.703125 C 4.976562 2.726562 3.074219 2.519531 3.074219 2.519531 C 2.246094 4.605469 2.285156 6.554688 2.410156 7.167969 C 1.433594 8.226562 0.839844 9.496094 0.839844 11.230469 C 0.839844 18.777344 7.101562 18.898438 8.679688 18.898438 C 9.039062 18.898438 9.75 18.898438 10.5 18.898438 C 11.25 18.898438 11.964844 18.898438 12.320312 18.898438 C 13.898438 18.898438 20.160156 18.777344 20.160156 11.230469 C 20.160156 9.496094 19.5625 8.226562 18.589844 7.167969 Z M 10.558594 18.058594 L 10.5 18.058594 C 6.539062 18.058594 3.425781 17.496094 3.425781 13.648438 C 3.425781 12.726562 3.753906 11.871094 4.523438 11.160156 C 5.8125 9.976562 7.996094 10.601562 10.46875 10.601562 C 10.480469 10.601562 10.519531 10.601562 10.53125 10.601562 C 13.003906 10.601562 15.1875 9.976562 16.476562 11.160156 C 17.25 11.871094 17.574219 12.726562 17.574219 13.648438 C 17.574219 17.496094 14.519531 18.058594 10.558594 18.058594 Z M 7.140625 12.179688 C 6.386719 12.179688 5.878906 13.027344 5.878906 14.070312 C 5.878906 15.113281 6.386719 15.960938 7.140625 15.960938 C 7.894531 15.960938 8.398438 15.113281 8.398438 14.070312 C 8.398438 13.027344 7.894531 12.179688 7.140625 12.179688 Z M 7.140625 12.179688 "/>
</g>
</svg>
